<?xml version="1.0" encoding="utf-8"?>
<!-- Generator: Adobe Illustrator 23.0.1, SVG Export Plug-In . SVG Version: 6.00 Build 0)  -->
<svg version="1.1" id="Layer_1" xmlns="http://www.w3.org/2000/svg" xmlns:xlink="http://www.w3.org/1999/xlink" x="0px" y="0px"
	 viewBox="0 0 96 96" style="enable-background:new 0 0 96 96;" xml:space="preserve">
<style type="text/css">
	.st0{fill:#484649;}
</style>
<path class="st0" d="M47.3,69.4V22.5c-1.9-0.6-8.9-2.7-18-2.7c-6,0-11.6,0.9-16.8,2.7v46.9c5.2-1.7,10.9-2.6,16.8-2.6
	C38,66.8,44.8,68.6,47.3,69.4z M41.3,35.9l-0.5,1.4c-0.1,0-10.9-3.8-21.9,0l-0.5-1.4C29.9,31.9,40.8,35.8,41.3,35.9z M41.3,44.9
	l-0.5,1.4c-0.1,0-10.9-3.8-21.9,0l-0.5-1.4C29.9,40.9,40.8,44.8,41.3,44.9z M18.4,53.9c11.5-4,22.4-0.2,22.9,0l-0.5,1.4
	c-0.1,0-10.9-3.8-21.9,0L18.4,53.9z"/>
<path class="st0" d="M83.5,69.4V47.6l-3,7.7l-5.7,6.3l0.1-6.9c-3.7-0.9-11.7-2.2-19.7,0.6l-0.5-1.4C63,51,71,52.2,75,53.2l0-0.3
	l8.6-22.3v-8.1c-1.9-0.6-9-2.7-18-2.7c-6,0-11.6,0.9-16.8,2.7v46.9c5.2-1.7,10.9-2.6,16.8-2.6C74.3,66.8,81.1,68.6,83.5,69.4z
	 M77.6,35.9l-0.5,1.4c-0.1,0-10.9-3.8-21.9,0l-0.5-1.4C66.2,31.9,77.1,35.8,77.6,35.9z M77.6,44.9l-0.5,1.4c-0.1,0-10.9-3.8-21.9,0
	l-0.5-1.4C66.2,40.9,77.1,44.8,77.6,44.9z"/>
<path class="st0" d="M85,71.5l-1-0.4c-0.1,0-8-2.8-18.5-2.8c-6.2,0-12,1-17.3,2.8L48,71.2l-0.3-0.1c-0.1,0-8-2.8-18.5-2.8
	c-6.2,0-12,1-17.3,2.8l-1,0.4V26.2H6.3v49.9h83.5V31.6L85,43.8V71.5z"/>
<polygon class="st0" points="76.4,53.3 76.4,53.6 76.4,55.1 76.4,57.8 79.3,54.5 83.5,43.6 85,39.7 87.8,32.4 85,31.3 84.9,31.2 
	83.5,34.8 "/>
<polygon class="st0" points="85,29.7 89.8,31.5 89.8,26.2 85,26.2 "/>
</svg>
