<svg xmlns="http://www.w3.org/2000/svg" xmlns:xlink="http://www.w3.org/1999/xlink" version="1.1" x="0px" y="0px" viewBox="0 0 128 128" style="enable-background:new 0 0 128 128;" xml:space="preserve"><g><path d="M18.0312843,62c0.6191006-14.794899,11.4570007-26.3017998,25.4002991-26.9678001L40.087883,52.9883003   c-0.3593979,1.5067978,0.3964996,3.2098999,1.8310013,4.0868988l3.8232994,2.3203011   c0.660099,0.402401,1.4696999,0.6035004,2.2793007,0.6035004s1.6180992-0.2010994,2.2783012-0.6015015l3.8272133-2.3242989   c1.4403839-0.8788986,2.1776848-2.6445007,1.750885-4.1512985l-4.0038834-17.9073029   C66.150383,35.3330002,77.3397827,46.9648018,77.9687805,62h4c-0.5722961-15.5126991-11.0625-27.8876991-25.1503983-30.4883003   C61.7157822,28.5282993,65,23.1532993,65,17C65,7.6113,57.3837852,0,48,0c-9.3838158,0-17,7.6113-17,17   c0,6.1522999,3.2831841,11.5263996,8.1796837,14.5107002c-14.1034985,2.6006012-24.6005993,15.0029984-25.1503983,30.5449982   C14.273385,62.0360985,14.5185843,62,14.7597847,62H18.0312843z M48.2431831,55.9668007   c-0.0956993,0.0438995-0.344799,0.044899-0.4229012,0.0107002l-3.7880974-2.3183022L47.5058823,35h0.2656021l4.1846008,18.7118988   L48.2431831,55.9668007z M35,17c0-7.1680002,5.8320007-13,13-13s13,5.8319998,13,13s-5.8320007,13-13,13S35,24.1679993,35,17z"></path><path d="M81.9188843,45.8027c-0.6307983,1.5214996-0.1875,2.5517998,0.131897,3.0312996   C82.5458832,49.5751991,83.375,50,84.3270798,50c0.4258041,0,0.8770065-0.0849991,1.3409195-0.2528992l9.9344864-3.5967026   c2.6913986,1.0019035,5.5126953,1.5098,8.3975143,1.5098c13.2333832,0,24-10.6904984,24-23.8300991   C128,10.6904001,117.2333832,0,104,0C90.7665863,0,80,10.6904001,80,23.8300991   c0,5.2607002,1.7685852,10.3760014,5.0028839,14.5389996L81.9188843,45.8027z M84,23.8300991C84,12.8955002,92.9716797,4,104,4   c11.0282822,0,20,8.8955002,20,19.8300991c0,10.9344997-8.9717178,19.8300991-20,19.8300991   c-2.625,0-5.1865158-0.5038986-7.6133194-1.497097l-0.7137985-0.2919998L86.5048828,45.1875l3.125-7.5321999l-0.8076019-0.9336014   C85.712883,33.1240005,84,28.5459003,84,23.8300991z"></path><path d="M94,22h20c1.1044846,0,2-0.8955002,2-2s-0.8955154-2-2-2H94c-1.1045151,0-2,0.8955002-2,2S92.8954849,22,94,22z"></path><path d="M94,30h20c1.1044846,0,2-0.8955002,2-2s-0.8955154-2-2-2H94c-1.1045151,0-2,0.8955002-2,2S92.8954849,30,94,30z"></path><path d="M71.3993835,90.2861023C77.0741806,87.5313034,81,81.7304993,81,75c0-9.3887024-7.6162186-17-17-17   c-9.3838158,0-17,7.6112976-17,17c0,6.7294998,3.9247856,12.5302963,9.5985832,15.285202   C41.3915825,92.3417969,30,105.6768036,30,122.3378983V126c0,1.1044998,0.8954849,2,2,2c1.1044846,0,2-0.8955002,2-2v-3.6621017   C34,106.4473038,45.7333832,94,60.7118835,94h6.5644989C82.2616806,94,94,106.4473038,94,122.3378983V126   c0,1.1044998,0.8954849,2,2,2c1.1044846,0,2-0.8955002,2-2v-3.6621017C98,105.6797028,86.6083832,92.3467026,71.3993835,90.2861023   z M51,75c0-7.1679993,5.8320007-13,13-13s13,5.8320007,13,13s-5.8320007,13-13,13S51,82.1679993,51,75z"></path><path d="M119.5546799,69.5938034C118.3339996,67.6093979,115.5058823,66,113.240181,66H82.9442825   c0.6064987,1.2695007,1.086998,2.6063995,1.4287186,4h28.8671799c0.7989044,0,2.3819046,0.8349991,2.9082031,1.6903992   L122.4940796,82h-38.719696c-0.5,1.4092026-1.1445007,2.7471008-1.919899,4H104v40c0,1.1044998,0.8954849,2,2,2   c1.1044846,0,2-0.8955002,2-2V86h17.5497818c2.2656021,0,3.1122971-1.607399,1.8916016-3.5936966L119.5546799,69.5938034z"></path><path d="M46.1454849,86c-0.7754021-1.2538986-1.4199028-2.5907974-1.9209023-4.0009995H5.5058851l6.3465996-10.3095016   C12.3778849,70.8349991,13.960885,70,14.7597847,70h28.8672142c0.3417854-1.3936005,0.8221855-2.7304993,1.4286842-4H14.7597847   c-2.2657003,0-5.0937843,1.6093979-6.3144999,3.5938034l-7.8866997,12.8125C-0.6621149,84.392601,0.184585,86,2.4501851,86H20v40   c0,1.1044998,0.8954849,2,2,2c1.1044846,0,2-0.8955002,2-2V86H46.1454849z"></path></g></svg>