<?xml version="1.0" encoding="utf-8"?>
<!-- Generator: Adobe Illustrator 23.0.1, SVG Export Plug-In . SVG Version: 6.00 Build 0)  -->
<svg version="1.1" id="Layer_1" xmlns="http://www.w3.org/2000/svg" xmlns:xlink="http://www.w3.org/1999/xlink" x="0px" y="0px"
	 viewBox="0 0 2654.5 1729.6" style="enable-background:new 0 0 2654.5 1729.6;" xml:space="preserve">
<style type="text/css">
	.st0{fill:url(#SVGID_1_);}
	.st1{fill:#657285;}
	.st2{fill:#B8C1C9;}
	.st3{fill:#82B378;}
	.st4{fill:#D5D6DA;}
	.st5{fill:#364154;}
	.st6{fill:#016EB9;}
	.st7{fill:#00A3FE;}
	.st8{fill:#FFFFFF;}
	.st9{fill:#131F2D;}
	.st10{fill:#FF7955;}
	.st11{fill:#EF6343;}
	.st12{fill:#599DAD;}
</style>
<title>german-girl</title>
<linearGradient id="SVGID_1_" gradientUnits="userSpaceOnUse" x1="1327.2354" y1="1727.8903" x2="1327.2354" y2="-1.6503" gradientTransform="matrix(1 0 0 -1 0 1727.8898)">
	<stop  offset="0.36" style="stop-color:#484649"/>
	<stop  offset="0.37" style="stop-color:#594748"/>
	<stop  offset="0.42" style="stop-color:#934B42"/>
	<stop  offset="0.47" style="stop-color:#C14F3E"/>
	<stop  offset="0.52" style="stop-color:#E2513B"/>
	<stop  offset="0.55" style="stop-color:#F7523A"/>
	<stop  offset="0.58" style="stop-color:#FE5339"/>
	<stop  offset="0.65" style="stop-color:#FE5339"/>
	<stop  offset="0.7" style="stop-color:#FE763B"/>
	<stop  offset="0.76" style="stop-color:#FF983D"/>
	<stop  offset="0.81" style="stop-color:#FFB33F"/>
	<stop  offset="0.87" style="stop-color:#FFC640"/>
	<stop  offset="0.93" style="stop-color:#FFD141"/>
	<stop  offset="1" style="stop-color:#FFD541"/>
</linearGradient>
<path class="st0" d="M0,1729.5l2006.9-6.4l90.4-0.3l118.2-0.3h11.6l0,0l37.5-0.1l21.3-0.1l37.2-0.1h16.1l312.2-0.9
	c0,0,8.1-106-2-251.5c-2.8-39.8-6.9-82.7-13-127.1c-2-14.8-4.2-29.8-6.7-44.9c-4.3-26.1-9.2-52.5-14.9-79c-0.4-1.9-0.8-3.9-1.3-5.8
	c-6.5-29.2-13.9-58.6-22.4-87.7c-73.1-249.5-237-774-549-649.4C1468.2,705.2,1618.4,44.4,1132.4,1.5
	C820.4-26,592.6,318.8,628.3,689.3C688.5,1316,8.8,861.7,0,1729.5z"/>
<path class="st1" d="M1553.8,1537.3l52.9-522.1H1711c64.5,0,113.2,59,100.5,122.3c-0.2,1.2-0.5,2.4-0.7,3.6
	c-25.9,121-101.8,322.1-75.9,396.3H1553.8z"/>
<path class="st2" d="M1244,1413.9c21.5-105.6,47.1-239.7,65.4-334.6c7.2-37.2,39.8-64,77.6-64h255.6c43.7,0,79.1,35.4,79.1,79.1
	c0,4.5-0.4,9.1-1.2,13.5l-61.7,364c-7.1,41.1-45,69.7-86.6,65.1l-259.5-28.6c-43.4-4.8-74.7-43.8-70-87.2
	C1243.1,1418.7,1243.5,1416.3,1244,1413.9z"/>
<path class="st2" d="M1921.3,1617.7c3.4,38.5,25.1,50.4,34.7,49.4s65.5-22.4,66.7-14.5s-32.4,33.4-56,34.6c0,0,44.5,49.1,74.1,34.9
	s32.1-36.6,50.5-45s34.2-8.4,26.6,0.2s-41,16.9-51.5,35.6c-2.5,4.4-4.9,8.5-6.8,12.1l62.3-0.1c19.8-9.8,36.4-23.3,37.6-37.9
	c0.1-1.1,0.2-2.2,0.3-3.2l1.9-22.4c0,0,32-37.3,15.4-68.3c-3.2-5.7-7.5-10.7-12.7-14.7c0,0-29.8-18-54.1-16.6
	c0,0,18.8,31.6,24.1,50.3c1.9,6.6,2.1,11.6-0.8,13.1c-3.2,1.6-7.3-3.1-11.5-10.8c-10.6-19.1-22.2-56.3-22.2-56.3s-17.9-1.7-38.3-2
	c-9.1-0.1-18.8,0.1-27.6,0.8c-9.7,0.8-18.2,2.4-23.8,5.1c0,0,1.2,1,3.3,2.7c3,2.6,7.9,6.7,13.3,11.5c16.1,14.2,37,34.3,29.2,36.1
	c-6.3,1.5-26.2-10.3-43.8-22c-16.4-10.9-31-21.7-31-21.7S1917.9,1579.2,1921.3,1617.7z"/>
<path class="st2" d="M1952.3,1618.8c0,0,171.4-6.6,209.3,42.4c0,0,8.4,25.1,34.1,47.9l4,11c0,0-29.7-31.3-40.3-33.2
	C2159.4,1686.8,2176,1626.1,1952.3,1618.8z"/>
<path class="st3" d="M2188.5,1708.8c1.5,1.6,3.7,3.8,6.8,6.7l0.1,0.1c1.1,1,2.2,2.1,3.2,3.3c1.6,1.8,3.2,3.7,4.6,5.7h8
	c-4.5-5.7-9.7-10.9-15.5-15.5l0,0C2195.1,1708.7,2180.3,1699.8,2188.5,1708.8z"/>
<path class="st4" d="M2348.8,1597.4c0,0-69.2-38.7-36.9-91.3c0,0,25.8-32.3,53.5-40.6c0,0-14.8,78.4,0,80.2s10.1-88.5,10.1-88.5
	s72.9-35,101.4-32.3c0,0-45.2,76.6-30.4,74.7s65.5-79.3,65.5-79.3s74.7-13.8,86.7,30.4s-7.4,66.4-18.4,69.2s-82.1,1.8-80.2,11.1
	s49.8,24,76.6,15.7c0,0-29.5,72.9-68.3,69.2s-50.7-27.7-74.7-29.5s-41.5,4.6-29.5,11.1s52.6,2.1,71.9,18.6s35,26.6-0.9,34
	s-100.5,2.8-113.4-24.9L2348.8,1597.4z"/>
<path class="st2" d="M2564.6,1464.6c0,0-193.7,62.7-215.8,132.8c0,0,0.9,31.4-18.4,67.3v13.8c0,0,20.3-47,31.4-53.5
	C2361.7,1625.1,2318.3,1564.2,2564.6,1464.6z"/>
<path class="st2" d="M2312.4,1724.4h11.1c0.4-16,2.2-34,7.7-47.7l0,0c0.7-1.7,1.4-3.4,2.2-4.9l0,0c2.3-4.5,3.9-7.8,4.8-10.2l0,0
	c5.7-13.9-7.9,3.2-7.9,3.2S2314.1,1689.4,2312.4,1724.4z"/>
<path class="st4" d="M2238.7,1544c0,0,91.2-51.1,48.6-120.4c0,0-34.1-42.6-70.5-53.5c0,0,19.4,103.3,0,105.8s-13.4-116.7-13.4-116.7
	s-96-46.2-133.7-42.6c0,0,59.6,100.9,40.1,98.5s-86.3-104.6-86.3-104.6s-98.5-18.2-114.3,40.1s9.7,87.5,24.3,91.2
	s108.2,2.4,105.8,14.6s-65.7,31.6-100.9,20.7c0,0,38.9,96.1,90,91.2c51.1-4.9,66.9-36.5,98.5-38.9s54.7,6.1,38.9,14.6
	s-69.3,2.8-94.8,24.5s-46.2,35.1,1.2,44.8s132.5,3.6,149.5-32.8L2238.7,1544z"/>
<path class="st2" d="M1954.2,1368.9c0,0,255.3,82.7,284.5,175.1c0,0-1.2,41.3,24.3,88.8v18.3c0,0-26.8-62-41.3-70.5
	C2221.7,1580.4,2278.8,1500.2,1954.2,1368.9z"/>
<path class="st2" d="M2252.6,1628.5L2252.6,1628.5c1.3,3.2,3.4,7.6,6.4,13.5l0,0c1.1,2.1,2,4.2,2.9,6.5l0,0
	c8.7,21.9,10.5,52.1,10.1,76h14.6c1.7-53.1-23.8-91.8-23.8-91.8l0,0C2262.6,1632.2,2245.3,1610.4,2252.6,1628.5z"/>
<rect x="1588.5" y="606" class="st1" width="565.4" height="32.8"/>
<rect x="1970.8" y="419.2" class="st5" width="40.8" height="186.9"/>
<rect x="1767.4" y="419.2" class="st5" width="40.8" height="186.9"/>
<rect x="1930.1" y="419.2" class="st6" width="40.8" height="186.9"/>
<rect x="1808.1" y="393.6" class="st5" width="40.8" height="212.5"/>
<rect x="2011.5" y="379" class="st7" width="40.8" height="227.2"/>
<rect x="2052.3" y="365" class="st6" width="40.8" height="241.2"/>
<rect x="1726.6" y="419.2" class="st6" width="40.8" height="186.9"/>
<rect x="1889.6" y="378.9" class="st7" width="40.8" height="227.2"/>
<rect x="1848.9" y="364.9" class="st6" width="40.8" height="241.2"/>
<polygon class="st7" points="1628.8,593.3 1667.7,606.1 1730.9,403.8 1692.1,391 "/>
<rect x="1772.1" y="430.1" class="st7" width="30.8" height="35.6"/>
<rect x="1854.5" y="377.9" class="st7" width="31.1" height="8.5"/>
<rect x="1854.5" y="392.2" class="st7" width="31.1" height="8.5"/>
<rect x="1811.6" y="414.1" class="st8" width="34.1" height="4.2"/>
<rect x="2015.3" y="385.6" class="st5" width="34.5" height="4.7"/>
<rect x="2055.7" y="594.9" class="st5" width="34.3" height="7.3"/>
<rect x="2055.7" y="585.1" class="st5" width="34.3" height="7.3"/>
<path class="st5" d="M2072.8,578.5L2072.8,578.5c8.2,0,14.8-6.6,14.8-14.8c0,0,0,0,0,0l0,0c0-8.2-6.6-14.8-14.8-14.8l0,0l0,0
	c-8.2,0-14.8,6.7-14.8,14.8l0,0C2058,571.8,2064.6,578.5,2072.8,578.5z"/>
<rect x="1975.6" y="434.5" class="st8" width="32" height="7.4"/>
<rect x="1975.2" y="471.6" class="st8" width="32" height="7.4"/>
<path class="st8" d="M1736.5,450h22.4c3.1,0,5.6-2.5,5.6-5.6c0,0,0,0,0,0l0,0c0-3.1-2.5-5.6-5.6-5.6l0,0h-22.4
	c-3.1,0-5.6,2.5-5.6,5.5c0,0,0,0,0,0l0,0C1730.9,447.5,1733.4,450,1736.5,450C1736.5,450,1736.5,450,1736.5,450z"/>
<rect x="329.6" y="844.3" class="st1" width="565.4" height="32.8"/>
<rect x="580.3" y="657.4" class="st5" width="40.8" height="186.9"/>
<rect x="539.5" y="631.7" class="st7" width="40.8" height="212.5"/>
<rect x="621" y="657.4" class="st6" width="40.8" height="186.9"/>
<rect x="458" y="617" class="st7" width="40.8" height="227.2"/>
<rect x="498.8" y="603.1" class="st6" width="40.8" height="241.2"/>
<polygon class="st5" points="759.5,831.5 720.7,844.3 657.5,641.9 696.3,629.1 "/>
<rect x="585.4" y="668.2" class="st7" width="30.8" height="35.6"/>
<rect x="508.4" y="603.1" class="st7" width="31.1" height="8.5"/>
<rect x="502.8" y="630.3" class="st7" width="31.1" height="8.5"/>
<rect x="542.8" y="652.3" class="st8" width="34.1" height="4.2"/>
<path class="st8" d="M651.9,688.1h-22.4c-3.1,0-5.6-2.5-5.6-5.6l0,0c0-3.1,2.5-5.6,5.6-5.6h22.4c3.1,0,5.6,2.5,5.6,5.6l0,0
	C657.5,685.6,655,688.1,651.9,688.1z"/>
<path class="st9" d="M1411.6,709.6c2.9-5.3,36.6-61.3,126.7-19.6c0,0-46.2-16.8-63.4-1.5c0,0,41.6-8.7,62,11.2s13.1,69.3,6.2,83.3
	s-43,52.1-60.3,48.1c-6.5-1.5-13-5.3-18.6-9.4c0.9,9.1,1.3,18.2,1.2,27.3c-1.4,90.5-73.7,143-99.7,120
	c-16.7-14.7-38.7,15.3-38.7,15.3L1216.8,739C1216.8,739,1357,631.9,1411.6,709.6z"/>
<path class="st10" d="M1154.9,1219.3c23.1,16,52,29.2,88.3,37.6c136.2,31.5,188.4-83.6,208-162.6c-18.6-10.6-36-13-46.1-14.2
	c-9.8-1.2-20.2-1.9-28.8-2.3c-15.3-11.7-38.1-59.7-43.1-134.1l-6.4,1.7l-107.3,29.4c0,0,4.9,34.1,7.3,66.4
	c1.9,25.2,2.2,49.3-2.6,55.3c-8.4,1.8-13.4,3-13.4,3c0,0,0,0.1-0.1,0.1C1209.3,1101.8,1178.1,1153.1,1154.9,1219.3z"/>
<path class="st11" d="M1219.4,974.8c0,0,4.9,34.1,7.3,66.4c60.8-6.1,89-64,100-95.7L1219.4,974.8z"/>
<path class="st10" d="M1186.3,986.6c0,0,140.4,34.5,160.5-53.2s51.8-142.4-37-168.1s-113.9,3.8-127.7,31.4
	S1150.3,975.4,1186.3,986.6z"/>
<path class="st9" d="M1197.4,748.8c27.8-21.4,42.9-11.9,50.3-1.8c86.7-24.7,135.7,47.3,135.7,47.3c-5,65.1,18.5,113.4,18.5,113.4
	s-29.3,10-85-18.8c-17-8.8-30.2-25.3-40.4-44c14.8,45.6,40.8,82,40.8,82c-63.3-48.8-69.2-153.7-69.6-164.7
	c-10.4,5.8-31.2,18.7-40.1,33.9c-12.1,20.8-25.8,66-38.8,61.4C1168.8,857.5,1155.7,780.9,1197.4,748.8z"/>
<path class="st7" d="M1154.9,1110.6c19.6-10.4,44.8-18.2,72.3-23.9c0,0,14.1,36.4,57.2,35.6c40.9-0.8,81.5-46,85.4-50.6
	c46.9-1.5,81.4,0,81.4,0s98.8,154.6,86.6,190.4c-7.8,22.8-14.2,46-19.3,69.6c-23,105.5-15.7,197.3-9.9,240.4c2.3,16.6,4.3,26,4.3,26
	l-311.2,7.2c0,0-25.8-91.8-44.9-170.1c-0.6-2.4-1.1-4.7-1.7-7c-13,26.7-49.7,66.9-66.4,70c-1,0.2-5.7,0.3-12.4,0.3
	c-24.9,0.2-73.1,0.5-73.1,0.5C993.9,1425.4,1114.4,1128.2,1154.9,1110.6z"/>
<path class="st6" d="M1508.6,1572.2c-5.8-43-13.1-134.9,9.9-240.4c-0.1-1.2-0.1-1.9-0.1-1.9s-85.1,81.3-99.8,166.4
	C1408.4,1554.4,1469.7,1569.6,1508.6,1572.2z"/>
<path class="st10" d="M1266.5,1498.6c1.8-5.6,30.7-36.7,46-40.2s65.8,8.1,65.8,8.1l0,0c63.1-8.7,125.4-22,186.5-39.7
	c14.8-4.3,29.9-9,45.2-14.1l-127.5-115l-112.8-225.9c0,0,88.1,7,112.3,21.4c87.1,51.9,256,340.4,252.9,403.1c0,0-40.9,2.3-115.5,3.2
	c-57.4,0.7-134.3,2.8-228.3,0.4c-7.1,1.1-14.3,1.2-21.4,0.4L1266.5,1498.6z"/>
<path class="st7" d="M1426.7,1244.9l168.3,169.1c-11.1,4.2-22.7,10.2-30.2,12.7c0,0,10.3,44.2,54.7,72.7c74.7-0.9,116.5-1,116.5-1
	c3.1-62.7-159.3-368-246.4-419.9c-24.2-14.4-119.8-6.9-119.8-6.9L1426.7,1244.9z"/>
<path class="st6" d="M1003.2,1499.2c6.7-0.1,84.5-0.7,85.5-0.9c16.6-3.2,53.4-43.3,66.4-70c0.6,2.3-4.1-25.3-8.5-36.5
	c-6.1-15.4-13.5-30.3-21.9-44.6C1079.9,1340.5,1003,1456.7,1003.2,1499.2z"/>
<path class="st10" d="M1005.8,1429c16.1-119.8,40.4-238.4,72.7-354.8h0.3c2.4-9.4,21.8-83.2,29.8-91.3c8.6-8.6,54.1-26.7,62-28.7
	c0.6,3.5-0.7,7.1-3.4,9.3c-2.3,1.9-4.7,3.6-7.2,5.2l10.8,5.8c-2.9,2.2-6.5,3.2-10.1,2.7c-3.4-0.6-6.8-1.4-10.1-2.5
	c-2.2,1.4-4.4,2.7-6.4,3.8c-3.4,3.2-7.4,7.3-7.8,8.7c-0.4,1.7-1.9,9.3-2.8,14c1.5-1.3,2.9-2.8,4-4.4c4.3-6.7,13.3-6,13.3-6
	s-12.3,15.5-13.5,25.6c-1.8,15.3-10.3,23.4-10.3,23.4l0,0c-3.1,3.7-7.6,7-11.3,14.8c-2.7,5.7-3.8,16.6-4.6,22.8l0,0
	c-1.8,22.6-8.2,106-6.5,167.4c2.3,82.6,10.2,156.7,0.9,202.7c-2.4,11.9-5.9,21.9-11,29.7c-20.3,31.1-91.5,22-91.5,22
	S1000.1,1472.3,1005.8,1429z"/>
<path class="st12" d="M1003.2,1499.2c0,0,71.2,9.1,91.4-22c5.1-7.8,8.6-17.8,11-29.7c-15.3,3.8-57.1,10.3-99.8-18.4
	C1000.1,1472.3,1003.2,1499.2,1003.2,1499.2z"/>
<path class="st9" d="M1220.4,1478.1c11.3,0,20.5,9.2,20.5,20.5l0,0H983.5v-20.5H1220.4z"/>
<polygon class="st9" points="984.2,1218.2 586.2,1218.2 681.7,1498.6 1082.3,1498.6 "/>
<polygon class="st9" points="978.4,1218.2 1076.4,1498.6 675.8,1498.6 580.4,1218.2 "/>
<path class="st7" d="M809.9,1336.4c10.7,0,21.4,8.7,23.9,19.4s-4.2,19.4-14.9,19.4s-21.4-8.7-23.9-19.4S799.2,1336.4,809.9,1336.4z"
	/>
<path class="st5" d="M606,1723.5h1412.6l-36.4-114.2c-21.2-66.5-76.9-110.7-139.3-110.7H740.5c-45.9,0-86.3,34.4-99,84.5L606,1723.5
	z"/>
<path class="st1" d="M323.8,1723.5h1362.6l2.6-57.5c4.2-91-59.8-167.4-140.3-167.4H458.3c-45.9,0-86.3,34.4-99,84.5L323.8,1723.5z"
	/>
<path class="st9" d="M109.5,1717.5h2481.1c1.5,0,2.7,1.2,2.7,2.7v6.8c0,1.5-1.2,2.7-2.7,2.7H109.5c-1.5,0-2.7-1.2-2.7-2.7v-6.8
	C106.9,1718.7,108.1,1717.5,109.5,1717.5z"/>
</svg>
