<?xml version="1.0" encoding="utf-8"?>
<!-- Generator: Adobe Illustrator 23.0.1, SVG Export Plug-In . SVG Version: 6.00 Build 0)  -->
<svg version="1.1" id="Layer_1" xmlns="http://www.w3.org/2000/svg" xmlns:xlink="http://www.w3.org/1999/xlink" x="0px" y="0px"
	 viewBox="0 0 96 96" style="enable-background:new 0 0 96 96;" xml:space="preserve">
<style type="text/css">
	.st0{fill:#484649;}
</style>
<path class="st0" d="M47.4,64.6V28.2c-1.5-0.5-7-2.1-14-2.1c-4.6,0-9,0.7-13.1,2.1v36.5c4.1-1.3,8.5-2,13.1-2
	C40.2,62.6,45.5,64.1,47.4,64.6z M42.8,38.6l-0.4,1.1c-0.1,0-8.5-3-17,0L25,38.6C33.9,35.5,42.4,38.5,42.8,38.6z M42.8,45.6
	l-0.4,1.1c-0.1,0-8.5-3-17,0L25,45.6C33.9,42.5,42.4,45.5,42.8,45.6z M25.4,53.7L25,52.6c8.9-3.1,17.4-0.1,17.8,0l-0.4,1.1
	C42.3,53.7,33.9,50.7,25.4,53.7z"/>
<path class="st0" d="M69,52l0-0.2l6.7-17.4v-6.3c-1.5-0.5-7-2.1-14-2.1c-4.6,0-9,0.7-13.1,2.1v36.5c4.1-1.3,8.5-2,13.1-2
	c6.8,0,12,1.4,14,2V47.7l-2.3,6l-4.4,4.9l0.1-5.4c-2.9-0.7-9.1-1.7-15.4,0.5l-0.4-1.1C59.7,50.4,65.9,51.3,69,52z M71,38.6l-0.4,1.1
	c-0.1,0-8.5-3-17,0l-0.4-1.1C62.1,35.5,70.7,38.5,71,38.6z M53.6,46.7l-0.4-1.1c8.9-3.1,17.4-0.1,17.8,0l-0.4,1.1
	C70.5,46.7,62.1,43.7,53.6,46.7z"/>
<path class="st0" d="M80.5,35.2l-3.7,9.5v21.6L76,66c-0.1,0-6.2-2.2-14.4-2.2c-4.8,0-9.3,0.7-13.5,2.2L48,66.1L47.8,66
	c-0.1,0-6.2-2.2-14.4-2.2c-4.8,0-9.3,0.7-13.5,2.2l-0.8,0.3V31h-3.7v38.9h65V35.2z"/>
<polygon class="st0" points="76.7,35 75.7,37.7 70.1,52.2 70.1,52.3 70.1,53.6 70.1,55.6 72.4,53 75.7,44.5 76.8,41.5 79,35.8 
	76.8,35 "/>
<polygon class="st0" points="80.5,31 76.8,31 76.8,33.7 80.5,35.2 "/>
<circle class="st0" cx="28.1" cy="88.5" r="2.2"/>
<polygon class="st0" points="8.4,27.8 7.4,29.8 5.2,30.1 6.8,31.7 6.4,33.9 8.4,32.9 10.4,33.9 10,31.7 11.6,30.1 9.4,29.8 "/>
<polygon class="st0" points="28.9,8.2 28.2,6.8 27.5,8.2 26,8.4 27.1,9.5 26.8,11 28.2,10.3 29.6,11 29.3,9.5 30.4,8.4 "/>
<polygon class="st0" points="87,69.9 88.3,70.7 88.1,69.1 89.2,68.1 87.7,67.8 87,66.5 86.3,67.8 84.8,68.1 85.9,69.1 85.6,70.7 "/>
<polygon class="st0" points="87,14.1 86.1,16.9 83.2,16.9 85.5,18.6 84.6,21.4 87,19.7 89.3,21.4 88.4,18.6 90.8,16.9 87.9,16.9 "/>
<circle class="st0" cx="79" cy="7.5" r="2.2"/>
<circle class="st0" cx="88.5" cy="49" r="1.8"/>
<circle class="st0" cx="14.9" cy="17.2" r="2.4"/>
<path class="st0" d="M21.9,88.5c0.3,0.1,0.7,0.2,1,0.2l0.1-0.5c-0.3-0.1-0.6-0.1-1-0.2L21.9,88.5z"/>
<path class="st0" d="M6.8,71.8c0.1,0.7,0.2,1.3,0.4,1.9l0.5-0.1c-0.2-0.6-0.3-1.3-0.4-1.9L6.8,71.8z"/>
<path class="st0" d="M18.1,87.2c0.6,0.3,1.2,0.5,1.8,0.8l0.2-0.5c-0.6-0.2-1.2-0.5-1.8-0.7L18.1,87.2z"/>
<path class="st0" d="M7,68.9c0-0.3,0-0.7,0-1l-0.5,0c0,0.3,0,0.7,0,1c0,0.3,0,0.7,0,1l0.5,0C7,69.5,7,69.2,7,68.9z"/>
<path class="st0" d="M11.8,82.4c0.4,0.5,0.9,1,1.4,1.4l0.3-0.4c-0.5-0.4-0.9-0.9-1.4-1.4L11.8,82.4z"/>
<path class="st0" d="M7.7,75.7c0.2,0.6,0.5,1.2,0.8,1.8l0.5-0.2c-0.3-0.6-0.5-1.2-0.7-1.8L7.7,75.7z"/>
<path class="st0" d="M9.4,79.3c0.3,0.6,0.7,1.1,1.1,1.7l0.4-0.3c-0.4-0.5-0.7-1.1-1.1-1.6L9.4,79.3z"/>
<path class="st0" d="M14.7,85.1c0.5,0.4,1.1,0.8,1.7,1.1l0.3-0.4c-0.6-0.3-1.1-0.7-1.6-1.1L14.7,85.1z"/>
<path class="st0" d="M7.4,64.9l-0.5-0.1c-0.1,0.3-0.1,0.7-0.2,1l0.5,0.1C7.3,65.6,7.4,65.3,7.4,64.9z"/>
<path class="st0" d="M89.1,77l0.5,0c0-0.3,0.1-0.7,0.1-1l-0.5,0C89.1,76.3,89.1,76.7,89.1,77z"/>
<path class="st0" d="M85.7,84.7l0.4,0.3c0.5-0.6,0.9-1.2,1.3-1.8L87,83C86.6,83.6,86.2,84.2,85.7,84.7z"/>
<path class="st0" d="M82.4,87.4l0.3,0.4c0.6-0.4,1.3-0.8,1.8-1.3l-0.3-0.4C83.6,86.7,83,87.1,82.4,87.4z"/>
<path class="st0" d="M88,81.1l0.5,0.2c0.3-0.7,0.5-1.4,0.7-2.1l-0.5-0.1C88.5,79.8,88.3,80.5,88,81.1z"/>
<path class="st0" d="M78.4,89l0.1,0.5c0.7-0.2,1.4-0.4,2.1-0.6l-0.2-0.5C79.8,88.6,79.1,88.8,78.4,89z"/>
<path class="st0" d="M75.3,89.3l0,0.5c0.1,0,0.2,0,0.3,0c0.2,0,0.5,0,0.7,0l0-0.5C76,89.3,75.6,89.3,75.3,89.3z"/>
<rect x="88.3" y="36.4" class="st0" width="0.5" height="2"/>
<rect x="88.3" y="28.4" class="st0" width="0.5" height="2"/>
<rect x="88.3" y="40.4" class="st0" width="0.5" height="2"/>
<rect x="88.3" y="32.4" class="st0" width="0.5" height="2"/>
</svg>
