<svg id="Layer_1" data-name="Layer 1" xmlns="http://www.w3.org/2000/svg" viewBox="0 0 110 110"><defs><style>.cls-1{fill:#3b4246;}</style></defs><title>phone</title><path class="cls-1" d="M41.22,38.89a16.49,16.49,0,0,0,3.45-5c2.79-6.85,1.51-8.17,1.51-8.17-1.83-3.95-5.76-9.24-10.94-14.43S24.77,2.24,20.82.4c0,0-6.43-2-11.24,2.86,0,0,0,0-.05.05h0c-.66.67-1.27,1.33-1.85,2Z"/><path class="cls-1" d="M109.6,89.18c-1.83-3.94-5.75-9.23-10.94-14.42S88.18,65.65,84.23,63.82c0,0-1.32-1.28-8.17,1.52a16.47,16.47,0,0,0-5,3.44l33.57,33.56c.66-.57,1.33-1.19,2-1.85h0v0s.06,0,0,0C111.58,95.6,109.6,89.18,109.6,89.18Z"/><path class="cls-1" d="M67.53,73.6a5.6,5.6,0,0,1-4.75,2c-6.11,0-15.25-5.47-19.08-9.3-5.1-5.1-13.07-19.54-7.29-23.84.32-.2.65-.4,1-.62L4.73,9.18C-.2,16.65,0,22.62,0,22.62S-.85,49.73,29.71,80.29C58.66,109.24,84.51,110,87.16,110h.33c.81,0,6.42-.17,13.33-4.73L68.15,72.61C67.93,72.94,67.72,73.27,67.53,73.6Z"/></svg>